<svg width="24" height="29" viewBox="0 0 24 29" fill="none" xmlns="http://www.w3.org/2000/svg">
<path d="M20.0659 15.0984C20.0531 12.7574 21.1116 10.9905 23.254 9.68926C22.0553 7.97339 20.2444 7.02934 17.8533 6.84436C15.5898 6.66575 13.1158 8.16475 12.2104 8.16475C11.254 8.16475 9.06057 6.90814 7.339 6.90814C3.78108 6.96555 0 9.74667 0 15.4046C0 17.0758 0.306057 18.8023 0.918172 20.5841C1.73433 22.9251 4.68013 28.6659 7.75345 28.5702C9.36026 28.532 10.4952 27.4285 12.5866 27.4285C14.6142 27.4285 15.6663 28.5702 17.458 28.5702C20.5569 28.5256 23.2221 23.3078 24 20.9604C19.8427 19.0022 20.0659 15.2196 20.0659 15.0984V15.0984ZM16.457 4.62457C18.1977 2.55786 18.0383 0.676143 17.9872 0C16.4506 0.089302 14.6716 1.04611 13.6578 2.22617C12.542 3.48915 11.8852 5.05194 12.0255 6.81246C13.6897 6.94004 15.2072 6.08529 16.457 4.62457V4.62457Z" fill="white"/>
</svg>
