<svg width="22" height="22" viewBox="0 0 22 22" fill="none" xmlns="http://www.w3.org/2000/svg">
<path d="M13.0625 8.9375H18.4375C18.9845 8.9375 19.5091 9.1548 19.8959 9.54159M13.0625 8.9375L19.8959 9.54159M13.0625 8.9375V3.5625C13.0625 3.01549 12.8452 2.49089 12.4584 2.10409C12.0716 1.7173 11.547 1.5 11 1.5C10.453 1.5 9.92839 1.7173 9.54159 2.10409C9.1548 2.49089 8.9375 3.01549 8.9375 3.5625V8.9375H3.5625C3.01549 8.9375 2.49089 9.1548 2.10409 9.54159C1.7173 9.92839 1.5 10.453 1.5 11C1.5 11.547 1.7173 12.0716 2.10409 12.4584C2.49089 12.8452 3.01549 13.0625 3.5625 13.0625H8.9375V18.4375C8.9375 18.9845 9.1548 19.5091 9.54159 19.8959C9.92839 20.2827 10.453 20.5 11 20.5C11.547 20.5 12.0716 20.2827 12.4584 19.8959C12.8452 19.5091 13.0625 18.9845 13.0625 18.4375V13.0625H18.4375C18.9845 13.0625 19.5091 12.8452 19.8959 12.4584C20.2827 12.0716 20.5 11.547 20.5 11C20.5 10.453 20.2827 9.92839 19.8959 9.54159M13.0625 8.9375L19.1888 10.2487L19.8959 9.54159" fill="#94ECFF" stroke="#94ECFF" stroke-width="2"/>
</svg>
