<svg width="24" height="25" viewBox="0 0 24 25" fill="none" xmlns="http://www.w3.org/2000/svg">
<g clip-path="url(#clip0_53_72)">
<path fill-rule="evenodd" clip-rule="evenodd" d="M11.5931 12.9569V24.2014C11.5931 24.3697 11.5874 24.5361 11.5759 24.7044C11.5606 24.9435 11.5434 24.9626 11.2925 24.9684C10.8177 24.9798 10.3429 24.9913 9.86805 24.9875C9.29315 24.982 8.71858 24.9742 8.14407 24.9664L8.14348 24.9664C7.32335 24.9553 6.50333 24.9442 5.68265 24.9397C4.85361 24.9359 4.10116 24.6681 3.37934 24.3047C1.98357 23.6008 1.00136 22.5087 0.423135 21.0589C0.168488 20.4201 0.0229757 19.7602 0.021061 19.0678C0.0192933 17.2966 0.0150774 15.5258 0.010862 13.7553C0.00594604 11.6904 0.00103077 9.62584 0 7.56129C0 6.81727 0.0325489 6.07133 0.26422 5.34835C0.760112 3.7991 1.70594 2.61325 3.1132 1.79463C3.81013 1.38915 4.55876 1.1099 5.36482 1.03722C5.85143 0.99481 6.34084 0.992744 6.82946 0.990681C6.91375 0.990325 6.99802 0.989969 7.08225 0.989406C8.344 0.985581 9.60574 0.987494 10.8675 0.989406C10.9592 0.989406 11.0503 0.994701 11.1415 0.999998C11.2236 1.00477 11.3057 1.00954 11.3883 1.01045C11.5261 1.01236 11.5855 1.06783 11.5836 1.20936C11.5814 1.34922 11.5847 1.48908 11.588 1.62895C11.5906 1.73773 11.5931 1.84651 11.5931 1.9553V12.9569ZM9.62106 2.9537H6.00622C5.13506 2.9537 4.35197 3.22721 3.67036 3.75702C2.65943 4.54312 2.02377 5.54344 2.00654 6.86508C2.00582 6.937 2.00429 7.00891 2.00276 7.08073C2.00022 7.19991 1.99769 7.31881 1.99888 7.43697C1.99998 8.55097 2.00138 9.66481 2.00279 10.7786C2.00631 13.562 2.00982 16.345 2.00846 19.129C2.00846 19.8252 2.21715 20.4526 2.58476 21.0245C3.41763 22.3213 4.61236 22.9945 6.16322 23.0175C6.88996 23.0276 7.61754 23.0361 8.34484 23.0446L8.34658 23.0446L8.35202 23.0447C8.71644 23.0489 9.08078 23.0532 9.44491 23.0576H9.62106V2.9537ZM14.0343 1.01622C14.0809 1.0137 14.1246 1.01077 14.1663 1.00797C14.2515 1.00226 14.3286 0.997089 14.4057 0.997089C14.798 0.998237 15.1903 0.997835 15.5827 0.997434C16.498 0.996496 17.4134 0.995559 18.3288 1.0143C19.3532 1.03534 20.2875 1.38918 21.1491 1.93046C22.3362 2.6764 23.1556 3.72454 23.6515 5.03279C23.9062 5.70605 23.9942 6.40608 23.9923 7.12332C23.9923 8.79212 23.9942 10.4604 23.9962 12.1287C23.9981 13.7971 24 15.4654 24 17.1342C24 17.9088 23.9847 18.6834 23.9636 19.458C23.9387 20.3589 23.6305 21.1794 23.169 21.9388C22.2175 23.5071 20.837 24.4902 19.0353 24.867C18.7768 24.9206 18.5069 24.955 18.2427 24.9569C17.5007 24.9645 16.7581 24.9665 16.0156 24.9686C15.438 24.9702 14.8604 24.9719 14.2832 24.976C14.1128 24.978 14.0458 24.9282 14.0496 24.7542C14.0517 24.6141 14.046 24.4741 14.0402 24.334C14.0354 24.2139 14.0305 24.0939 14.0305 23.9738C14.0305 20.2001 14.0309 16.4265 14.0314 12.6528C14.0319 8.87914 14.0324 5.10547 14.0324 1.3318C14.0343 1.23617 14.0343 1.13863 14.0343 1.01622ZM16.3548 14.1982C16.2859 15.4721 17.4309 16.5852 18.7596 16.5929C20.0597 16.5986 21.1491 15.5046 21.151 14.1906C21.1529 12.8479 20.0807 11.7653 18.752 11.7653C17.45 11.7653 16.2955 12.8288 16.3548 14.1982ZM5.96599 5.91457C4.97995 5.92414 3.71437 6.7198 3.7699 8.22124C3.67991 9.20625 4.66786 10.5126 6.14405 10.4284C7.17987 10.3691 8.28079 9.45681 8.26547 8.16959C8.25015 6.93402 7.20476 5.90118 5.96599 5.91457Z" fill="white"/>
</g>
<defs>
<clipPath id="clip0_53_72">
<rect width="24" height="24" fill="white" transform="translate(0 0.987549)"/>
</clipPath>
</defs>
</svg>
